<svg width="25" height="30" viewBox="0 0 25 30" fill="none" xmlns="http://www.w3.org/2000/svg">
<path d="M23.75 12.2955C23.75 20.8864 12.75 28.25 12.75 28.25C12.75 28.25 1.75 20.8864 1.75 12.2955C1.75 9.36602 2.90893 6.55656 4.97183 4.48514C7.03473 2.41371 9.83262 1.25 12.75 1.25C15.6674 1.25 18.4653 2.41371 20.5282 4.48514C22.5911 6.55656 23.75 9.36602 23.75 12.2955Z" stroke="#009546" stroke-width="2" stroke-linecap="round" stroke-linejoin="round"/>
<path d="M12.75 15.9773C14.775 15.9773 16.4167 14.3289 16.4167 12.2955C16.4167 10.262 14.775 8.61364 12.75 8.61364C10.725 8.61364 9.08333 10.262 9.08333 12.2955C9.08333 14.3289 10.725 15.9773 12.75 15.9773Z" stroke="#009546" stroke-width="2" stroke-linecap="round" stroke-linejoin="round"/>
</svg>
