<svg width="60" height="60" viewBox="0 0 60 60" fill="none" xmlns="http://www.w3.org/2000/svg">
<path d="M38.6396 60C38.4595 60 38.2776 59.9781 38.0956 59.934C37.3175 59.7419 36.6997 59.1441 36.4846 58.3751C34.4647 51.1792 29.6678 38.9995 24.4997 38.9995C19.3317 38.9995 14.5349 51.1792 12.5159 58.3751C12.3 59.1441 11.683 59.7411 10.9049 59.934C10.123 60.125 9.32598 59.895 8.77499 59.313C4.10099 54.3822 4.48202 44.3792 4.50099 43.9554C4.49994 40.5824 5.43807 36.5695 6.22502 33.8046C6.83294 31.6677 6.43208 29.3767 5.12494 27.5207C4.92694 27.2396 4.73695 26.9587 4.55498 26.6776C1.90231 22.5915 0.500488 17.7026 0.500488 12.5407V9.99979C0.500488 2.08987 9.0042 0 13.5002 0C19.1971 0 23.0041 2.48693 24.4999 3.67788C25.996 2.48693 29.803 0 35.4996 0C39.9955 0 48.4994 2.08987 48.4994 9.99979V12.5407C48.4994 17.7026 47.0974 22.5915 44.4445 26.6774C44.2625 26.9585 44.0725 27.2394 43.8745 27.5205C42.5665 29.3765 42.1655 31.6673 42.7744 33.8044C43.5614 36.5692 44.4993 40.5822 44.4993 43.9992C44.5172 44.3792 44.8983 54.382 40.2253 59.313C39.8027 59.7598 39.2347 60 38.6396 60ZM24.4999 36.9994C31.9808 36.9994 37.0377 52.947 38.4098 57.8351C38.4397 57.943 38.5268 57.9801 38.5747 57.9922C38.6546 58.0122 38.7206 57.9932 38.7727 57.9382C42.8695 53.6163 42.5037 44.1395 42.4997 44.0435C42.4986 40.8146 41.6016 36.9956 40.8497 34.3526C40.0756 31.6317 40.5817 28.7217 42.2386 26.3698C42.4217 26.1098 42.5975 25.8498 42.7656 25.5908C45.2084 21.828 46.4996 17.3159 46.4996 12.5411V10.0002C46.4996 2.11328 35.9488 2.00131 35.4988 2.00025C29.0318 2.00025 25.243 5.67223 25.2051 5.70913C24.8141 6.09607 24.1822 6.09607 23.7931 5.70724C23.7571 5.67223 19.9683 2.00025 13.5002 2.00025C13.0521 2.00131 2.50053 2.11328 2.50053 10.0002V12.5411C2.50053 17.3161 3.79144 21.828 6.2324 25.5889C6.40235 25.85 6.57737 26.11 6.7604 26.37C8.41737 28.723 8.92344 31.6319 8.14936 34.3529C7.39742 36.9958 6.5004 40.8137 6.5004 43.9997C6.49534 44.1386 6.13835 53.6245 10.2264 57.9373C10.2793 57.9934 10.3463 58.0103 10.4254 57.9924C10.4743 57.9804 10.5604 57.9443 10.5903 57.8353C11.9622 52.947 17.0191 36.9994 24.4999 36.9994Z" fill="#009546"/>
<path d="M15.5001 11.9998C14.9481 11.9998 14.5002 11.5517 14.5002 10.9999C14.5002 10.4479 14.9483 9.99999 15.5001 9.99999C18.391 9.99999 22.4219 5.928 23.732 4.35918C24.086 3.93513 24.7159 3.8782 25.1399 4.23224C25.564 4.58628 25.6209 5.21528 25.2679 5.64018C24.726 6.2909 19.843 11.9998 15.5001 11.9998Z" fill="#009546"/>
<path d="M28.4998 33.4134L24.0858 28.9994L28.4998 24.5854L32.9138 28.9994L28.4998 33.4134ZM26.9139 28.9994L28.4998 30.5853L30.0857 28.9994L28.4998 27.4135L26.9139 28.9994Z" fill="#009546"/>
<path d="M28.4999 26.9994C27.9478 26.9994 27.5 26.5513 27.5 25.9995V23.9994C27.5 23.4474 27.948 22.9995 28.4999 22.9995C29.0519 22.9995 29.4998 23.4476 29.4998 23.9994V25.9995C29.5 26.5515 29.0519 26.9994 28.4999 26.9994Z" fill="#009546"/>
<path d="M33.4998 29.9994H31.4998C30.9477 29.9994 30.4998 29.5513 30.4998 28.9994C30.4998 28.4474 30.9479 27.9995 31.4998 27.9995H33.4998C34.0519 27.9995 34.4997 28.4476 34.4997 28.9994C34.4997 29.5515 34.0519 29.9994 33.4998 29.9994Z" fill="#009546"/>
<path d="M28.4999 34.9994C27.9478 34.9994 27.5 34.5513 27.5 33.9994V31.9994C27.5 31.4474 27.948 30.9995 28.4999 30.9995C29.0519 30.9995 29.4998 31.4476 29.4998 31.9994V33.9994C29.5 34.5513 29.0519 34.9994 28.4999 34.9994Z" fill="#009546"/>
<path d="M25.4999 29.9994H23.4998C22.9478 29.9994 22.4999 29.5513 22.4999 28.9994C22.4999 28.4474 22.948 27.9995 23.4998 27.9995H25.4999C26.0519 27.9995 26.4998 28.4476 26.4998 28.9994C26.5 29.5515 26.0519 29.9994 25.4999 29.9994Z" fill="#009546"/>
<path d="M53.4994 43.4132L49.0854 38.9992L53.4994 34.5852L57.9134 38.9992L53.4994 43.4132ZM51.9135 38.9992L53.4994 40.5851L55.0853 38.9992L53.4994 37.4133L51.9135 38.9992Z" fill="#009546"/>
<path d="M53.4995 36.9994C52.9474 36.9994 52.4995 36.5513 52.4995 35.9995V33.9994C52.4995 33.4474 52.9476 32.9995 53.4995 32.9995C54.0513 32.9995 54.4994 33.4476 54.4994 33.9994V35.9995C54.4994 36.5513 54.0515 36.9994 53.4995 36.9994Z" fill="#009546"/>
<path d="M58.4995 39.9994H56.4994C55.9474 39.9994 55.4995 39.5513 55.4995 38.9994C55.4995 38.4474 55.9476 37.9995 56.4994 37.9995H58.4995C59.0515 37.9995 59.4994 38.4476 59.4994 38.9994C59.4994 39.5513 59.0513 39.9994 58.4995 39.9994Z" fill="#009546"/>
<path d="M53.4995 44.9992C52.9474 44.9992 52.4995 44.5511 52.4995 43.9992V41.9992C52.4995 41.4472 52.9476 40.9993 53.4995 40.9993C54.0513 40.9993 54.4994 41.4474 54.4994 41.9992V43.9992C54.4994 44.5513 54.0515 44.9992 53.4995 44.9992Z" fill="#009546"/>
<path d="M50.4996 39.9994H48.4995C47.9475 39.9994 47.4996 39.5513 47.4996 38.9994C47.4996 38.4474 47.9477 37.9995 48.4995 37.9995H50.4996C51.0516 37.9995 51.4995 38.4476 51.4995 38.9994C51.4995 39.5513 51.0516 39.9994 50.4996 39.9994Z" fill="#009546"/>
<path d="M36.4998 23.9997C35.9478 23.9997 35.4999 23.5516 35.4999 22.9997C35.4999 18.5889 32.808 14.9998 29.5 14.9998C28.9479 14.9998 28.5001 14.5517 28.5001 13.9999C28.5001 13.4478 28.9482 12.9999 29.5 12.9999C32.808 12.9999 35.4999 9.41105 35.4999 5.0002C35.4999 4.44816 35.948 4.00029 36.4998 4.00029C37.0516 4.00029 37.4997 4.44837 37.4997 5.0002C37.4997 9.41105 40.1916 12.9999 43.4996 12.9999C44.0517 12.9999 44.4996 13.448 44.4996 13.9999C44.4996 14.5519 44.0515 14.9998 43.4996 14.9998C40.1916 14.9998 37.4997 18.5887 37.4997 22.9997C37.4997 23.5516 37.0519 23.9997 36.4998 23.9997ZM32.9858 13.9997C34.4707 14.9017 35.7017 16.3626 36.4996 18.1617C37.2986 16.3628 38.5285 14.9017 40.0134 13.9997C38.5285 13.0976 37.2975 11.6367 36.4996 9.83762C35.7008 11.6367 34.4709 13.0978 32.9858 13.9997Z" fill="#009546"/>
</svg>
