<svg width="48" height="48" viewBox="0 0 48 48" fill="none" xmlns="http://www.w3.org/2000/svg">
<path d="M36.3239 0.251958L36.324 0.251957C39.3492 0.196545 42.1973 1.3193 44.3486 3.41182L44.5229 3.23262L44.3486 3.41183C46.5212 5.52502 47.7286 8.35517 47.7497 11.3836C47.7708 14.4126 46.6036 17.2587 44.4623 19.4005C42.5281 21.3351 39.9608 22.4948 37.2335 22.6662C36.9198 22.6859 36.6084 22.7159 36.2995 22.7555L35.8972 22.8072L36.1242 23.1434C37.8263 25.6639 39.0912 28.1885 39.7511 30.4022C40.9664 34.4778 39.93 36.5486 38.9155 37.5633C38.0062 38.4727 36.7177 38.9416 35.1009 38.9416C33.6212 38.9416 31.8752 38.5471 29.923 37.7459L29.6842 37.6479L29.5939 37.8898C28.8389 39.9134 27.6451 41.7747 26.1087 43.3114C23.2465 46.174 19.4423 47.75 15.3946 47.75C11.3468 47.75 7.54264 46.1741 4.68046 43.3114C-1.22682 37.4031 -1.22682 27.7891 4.68046 21.8808C6.23952 20.3215 8.06071 19.1521 10.1011 18.3948L10.3436 18.3048L10.2454 18.0655C8.55952 13.9563 8.6905 10.8092 10.4276 9.07187L10.2508 8.8951L10.4276 9.07186C11.4402 8.05912 13.5061 7.02355 17.5695 8.23035L17.6407 7.9907L17.5695 8.23035C19.7828 8.88762 22.3092 10.1512 24.8317 11.8535L25.1625 12.0767L25.2191 11.6817C25.267 11.3468 25.3039 11.0085 25.328 10.667C25.5116 8.06438 26.6058 5.59224 28.4087 3.7066L28.228 3.53383L28.4087 3.7066C30.4861 1.53376 33.296 0.306822 36.3239 0.251958ZM11.4519 20.5912L11.3506 20.4042L11.1498 20.4742C9.32395 21.1113 7.69809 22.1333 6.31616 23.5155C1.30979 28.5226 1.30979 36.6692 6.31616 41.6763C8.74073 44.1013 11.9656 45.4373 15.3945 45.4373C18.8234 45.4373 22.0482 44.1013 24.4728 41.6763C25.8365 40.3125 26.8811 38.6486 27.5138 36.8411L27.5841 36.6401L27.3969 36.5387C26.489 36.0466 25.5689 35.4889 24.6507 34.8738L24.3619 34.6803L24.2704 35.0156C23.851 36.551 23.0363 37.9653 21.9001 39.1019C20.162 40.8402 17.8524 41.797 15.3944 41.797C12.9364 41.797 10.6269 40.8402 8.8889 39.1019C5.30222 35.5146 5.30222 29.6771 8.88889 26.0898C10.0411 24.9375 11.4349 24.133 12.9736 23.7177L13.3102 23.6269L13.1162 23.3373C12.5013 22.4191 11.9438 21.4991 11.4519 20.5912ZM14.9283 25.8285L14.8328 25.7071L14.6816 25.738C14.6445 25.7456 14.6132 25.7513 14.5834 25.7548L14.5827 25.7548C13.0341 25.9375 11.6301 26.6192 10.5247 27.7247L10.7015 27.9015L10.5247 27.7247C7.83902 30.4108 7.83902 34.7809 10.5247 37.4671C11.8251 38.7678 13.5554 39.4846 15.3944 39.4846C17.2336 39.4846 18.9639 38.7678 20.2643 37.4671C21.3885 36.3427 22.0914 34.8561 22.2475 33.2772L22.2609 33.1408L22.1532 33.0561C20.8303 32.0154 19.5404 30.8734 18.3282 29.661C17.114 28.4466 15.9702 27.154 14.9283 25.8285ZM24.4565 14.6397L24.525 14.4598L24.3685 14.3476C21.7802 12.4925 19.1618 11.1156 16.911 10.4472C15.8152 10.1217 14.828 9.97288 14.0074 10.008C13.1909 10.0429 12.5082 10.2619 12.0634 10.7068C11.4889 11.2814 11.2864 12.2241 11.3698 13.3579C11.4538 14.501 11.8312 15.891 12.484 17.4264C13.9529 20.8816 16.6807 24.7422 19.9641 28.0262C23.2476 31.3101 27.1075 34.0383 30.5621 35.5075C32.097 36.1602 33.4867 36.5377 34.6294 36.6218C35.7628 36.7052 36.7052 36.5028 37.2796 35.9283C37.7257 35.4821 37.9448 34.7971 37.9789 33.9775C38.0132 33.1539 37.8626 32.1629 37.5345 31.0627C36.8594 28.7984 35.4702 26.1653 33.6001 23.565L33.4898 23.4117L33.3122 23.4758C31.4549 24.1463 29.7678 25.204 28.3768 26.5953L28.3767 26.5954L28.3089 26.6633C28.3088 26.6633 28.3088 26.6634 28.3088 26.6634C28.0919 26.8804 27.7977 27.0024 27.4909 27.0024C27.184 27.0025 26.8897 26.8806 26.6728 26.6637L26.6727 26.6636L21.1908 21.1809C20.7394 20.7294 20.7394 19.9974 21.1909 19.546L21.4971 19.2398L21.4971 19.2398C22.7961 17.9404 23.7981 16.3701 24.4565 14.6397ZM27.3526 24.0728L27.5151 24.2354L27.6907 24.0869C30.2867 21.8927 33.5767 20.5786 37.0882 20.358C39.253 20.2221 41.2911 19.3012 42.8266 17.7655C44.5262 16.0655 45.4536 13.8038 45.4368 11.3995C45.4201 8.99561 44.4605 6.74659 42.7359 5.06913C41.0301 3.40983 38.7699 2.5204 36.366 2.56388L36.3706 2.81384L36.366 2.56388C33.9619 2.60754 31.7287 3.5807 30.0807 5.3044C28.6494 6.80145 27.7811 8.76349 27.6353 10.8297C27.3872 14.3462 26.0287 17.6285 23.7877 20.1763L23.6328 20.3523L23.7986 20.5181L27.3526 24.0728Z" fill="#21A8F4" stroke="#E5FDF4" stroke-width="0.5"/>
</svg>
