<svg width="28" height="28" viewBox="0 0 28 28" fill="none" xmlns="http://www.w3.org/2000/svg">
<path fill-rule="evenodd" clip-rule="evenodd" d="M14 2.07407C7.41349 2.07407 2.07407 7.41349 2.07407 14C2.07407 20.5865 7.41349 25.9259 14 25.9259C20.5865 25.9259 25.9259 20.5865 25.9259 14C25.9259 7.41349 20.5865 2.07407 14 2.07407ZM0 14C0 6.26801 6.26801 0 14 0C21.732 0 28 6.26801 28 14C28 21.732 21.732 28 14 28C6.26801 28 0 21.732 0 14ZM14 5.18518C14.5727 5.18518 15.037 5.64948 15.037 6.22222V13.3591L19.649 15.665C20.1612 15.9212 20.3689 16.5441 20.1127 17.0564C19.8566 17.5686 19.2337 17.7763 18.7214 17.5201L13.5362 14.9276C13.1849 14.7519 12.963 14.3928 12.963 14V6.22222C12.963 5.64948 13.4273 5.18518 14 5.18518Z" fill="#009546"/>
</svg>
