<svg width="20" height="20" viewBox="0 0 20 20" fill="none" xmlns="http://www.w3.org/2000/svg">
<path d="M1.29289 1.29289C1.68342 0.902369 2.31658 0.902369 2.70711 1.29289L18.9706 17.5563C19.3611 17.9469 19.3611 18.58 18.9706 18.9706C18.58 19.3611 17.9469 19.3611 17.5563 18.9706L1.29289 2.70711C0.902369 2.31658 0.902369 1.68342 1.29289 1.29289Z" fill="white"/>
<path d="M18.9709 1.29289C18.5803 0.902369 17.9472 0.902369 17.5567 1.29289L1.2932 17.5563C0.902671 17.9469 0.902671 18.58 1.2932 18.9706C1.68372 19.3611 2.31688 19.3611 2.70741 18.9706L18.9709 2.70711C19.3614 2.31658 19.3614 1.68342 18.9709 1.29289Z" fill="white"/>
<path d="M1.29289 1.29289C1.68342 0.902369 2.31658 0.902369 2.70711 1.29289L18.9706 17.5563C19.3611 17.9469 19.3611 18.58 18.9706 18.9706C18.58 19.3611 17.9469 19.3611 17.5563 18.9706L1.29289 2.70711C0.902369 2.31658 0.902369 1.68342 1.29289 1.29289Z" stroke="white" stroke-linecap="round" stroke-linejoin="round"/>
<path d="M18.9709 1.29289C18.5803 0.902369 17.9472 0.902369 17.5567 1.29289L1.2932 17.5563C0.902671 17.9469 0.902671 18.58 1.2932 18.9706C1.68372 19.3611 2.31688 19.3611 2.70741 18.9706L18.9709 2.70711C19.3614 2.31658 19.3614 1.68342 18.9709 1.29289Z" stroke="white" stroke-linecap="round" stroke-linejoin="round"/>
</svg>
