<svg width="48" height="60" viewBox="0 0 48 60" fill="none" xmlns="http://www.w3.org/2000/svg">
<path d="M15.1475 11.8033C14.6045 11.8033 14.164 11.3626 14.164 10.8198C14.164 10.2768 14.6047 9.83625 15.1475 9.83625C17.9911 9.83625 21.956 5.83094 23.2446 4.2878C23.5929 3.8707 24.2124 3.8147 24.6295 4.16294C25.0466 4.51118 25.1026 5.12989 24.7554 5.54782C24.2221 6.18789 19.4193 11.8033 15.1475 11.8033Z" fill="#21A8F4"/>
<path d="M40.7213 30.4919H7.27856C6.81831 30.4919 6.41988 30.1723 6.31866 29.7236C6.11602 28.8197 5.50913 27.8754 4.9427 27.0698C4.74794 26.7933 4.56106 26.5171 4.38206 26.2395C1.77263 22.2216 0.393555 17.4126 0.393555 12.3353V9.83604C0.393347 2.05565 8.75802 0 13.1802 0C18.7838 0 22.5284 2.4462 23.9998 3.61766C25.4714 2.4462 29.216 0 34.8196 0C39.2418 0 47.6065 2.05565 47.6065 9.83604V12.3353C47.6065 17.4128 46.2274 22.2216 43.618 26.2406C43.439 26.5171 43.2521 26.7933 43.0573 27.0698C42.4907 27.8744 41.8838 28.8197 41.6814 29.7236C41.5799 30.1721 41.1815 30.4919 40.7213 30.4919ZM8.00843 28.5246H39.9924C40.3446 27.5773 40.9142 26.6981 41.4501 25.9378C41.6301 25.682 41.8031 25.4263 41.9684 25.1716C44.3694 21.4703 45.6392 17.0322 45.6392 12.3356V9.83625C45.6392 2.07846 35.2601 1.96833 34.8186 1.96729C28.4575 1.96729 24.7307 5.57914 24.6934 5.61544C24.3088 5.99604 23.6872 5.99604 23.3046 5.61357C23.2691 5.57914 19.5423 1.96729 13.1802 1.96729C12.7397 1.96812 2.36064 2.07846 2.36064 9.83604V12.3353C2.36064 17.0322 3.63041 21.4701 6.03139 25.1695C6.19857 25.4263 6.37072 25.682 6.55075 25.9378C7.0867 26.699 7.65542 27.5773 8.00843 28.5246Z" fill="#21A8F4"/>
<path d="M37.7704 34.4263H10.2294C9.68639 34.4263 9.24585 33.9855 9.24585 33.4427V29.5083C9.24585 28.9653 9.6866 28.5248 10.2294 28.5248H37.7704C38.3134 28.5248 38.754 28.9655 38.754 29.5083V33.4427C38.754 33.9855 38.3134 34.4263 37.7704 34.4263ZM11.2129 32.459H36.7867V30.4917H11.2129V32.459Z" fill="#21A8F4"/>
<path d="M26.9506 60H21.0489C20.6762 60 20.3358 59.7895 20.1687 59.456L17.2178 53.5543C17.15 53.4187 17.1145 53.267 17.1145 53.1146V33.4425C17.1145 32.8995 17.5553 32.459 18.0981 32.459H29.9014C30.4444 32.459 30.8849 32.8997 30.8849 33.4425V53.1146C30.8849 53.267 30.8495 53.4184 30.7817 53.5543L27.8308 59.456C27.6639 59.7895 27.3235 60 26.9506 60ZM21.6568 58.0327H26.3427L28.9177 52.8825V34.426H19.0816V52.8825L21.6568 58.0327Z" fill="#21A8F4"/>
<path d="M31.8687 39.3444H16.131C15.588 39.3444 15.1474 38.9036 15.1474 38.3608C15.1474 37.8178 15.5882 37.3773 16.131 37.3773H31.8687C32.4117 37.3773 32.8523 37.818 32.8523 38.3608C32.8523 38.9036 32.4117 39.3444 31.8687 39.3444Z" fill="#21A8F4"/>
<path d="M31.8687 43.2788H16.131C15.588 43.2788 15.1474 42.838 15.1474 42.2952C15.1474 41.7524 15.5882 41.3117 16.131 41.3117H31.8687C32.4117 41.3117 32.8523 41.7524 32.8523 42.2952C32.8523 42.838 32.4117 43.2788 31.8687 43.2788Z" fill="#21A8F4"/>
<path d="M31.8687 47.2131H16.131C15.588 47.2131 15.1474 46.7724 15.1474 46.2296C15.1474 45.6868 15.5882 45.246 16.131 45.246H31.8687C32.4117 45.246 32.8523 45.6868 32.8523 46.2296C32.8523 46.7724 32.4117 47.2131 31.8687 47.2131Z" fill="#21A8F4"/>
<path d="M31.8687 51.1475H16.131C15.588 51.1475 15.1474 50.7068 15.1474 50.164C15.1474 49.6212 15.5882 49.1804 16.131 49.1804H31.8687C32.4117 49.1804 32.8523 49.6212 32.8523 50.164C32.8523 50.7068 32.4117 51.1475 31.8687 51.1475Z" fill="#21A8F4"/>
<path d="M31.8687 55.0821H16.131C15.588 55.0821 15.1474 54.6413 15.1474 54.0985C15.1474 53.5557 15.5882 53.115 16.131 53.115H31.8687C32.4117 53.115 32.8523 53.5557 32.8523 54.0985C32.8523 54.6413 32.4117 55.0821 31.8687 55.0821Z" fill="#21A8F4"/>
</svg>
