<svg id="Capa_1" enable-background="new 0 0 284.539 284.539" height="512" viewBox="0 0 284.539 284.539" width="512" xmlns="http://www.w3.org/2000/svg"><path d="m83.311 223.838c-6.037 0-11.718-2.352-15.986-6.62-4.273-4.268-6.62-9.949-6.62-15.986s2.352-11.718 6.62-15.986l117.912-117.914c4.268-4.273 9.949-6.62 15.986-6.62s11.718 2.352 15.986 6.62c4.273 4.268 6.62 9.949 6.62 15.986s-2.352 11.718-6.62 15.986l-117.912 117.913c-4.268 4.273-9.949 6.621-15.986 6.621zm117.913-153.647c-3.505 0-6.8 1.366-9.281 3.846l-117.913 117.913c-2.48 2.48-3.846 5.776-3.846 9.281s1.366 6.8 3.846 9.281c4.96 4.956 13.601 4.96 18.561 0l117.913-117.913c2.48-2.48 3.846-5.776 3.846-9.281s-1.366-6.8-3.846-9.281c-2.48-2.48-5.776-3.846-9.28-3.846z"/><path d="m184.379 130.167c-1.214 0-2.428-.465-3.353-1.389l-25.267-25.267c-1.854-1.854-1.854-4.851 0-6.706l16.845-16.845c1.854-1.854 4.851-1.854 6.706 0l25.267 25.267c1.854 1.854 1.854 4.851 0 6.706l-16.845 16.845c-.925.929-2.139 1.389-3.353 1.389zm-18.561-30.009 18.561 18.561 10.139-10.139-18.561-18.561z"/><path d="m108.578 205.973c-1.214 0-2.428-.465-3.353-1.389l-25.267-25.267c-1.854-1.854-1.854-4.851 0-6.706l16.845-16.845c1.854-1.854 4.851-1.854 6.706 0l25.267 25.267c1.854 1.854 1.854 4.851 0 6.706l-16.845 16.845c-.925.924-2.139 1.389-3.353 1.389zm-18.562-30.014 18.561 18.561 10.139-10.139-18.561-18.561z"/><path d="m213.862 75.427c-1.214 0-2.428-.465-3.353-1.389-1.854-1.854-1.854-4.851 0-6.706l25.267-25.267c1.854-1.854 4.851-1.854 6.706 0 1.854 1.854 1.854 4.851 0 6.706l-25.267 25.267c-.925.929-2.139 1.389-3.353 1.389z"/><path d="m255.974 57.117c-7.313 0-14.63-2.784-20.197-8.351-1.854-1.85-1.854-4.851 0-6.706 1.854-1.854 4.851-1.854 6.706 0 7.436 7.436 19.548 7.436 26.984 0 7.436-7.441 7.436-19.548 0-26.984s-19.543-7.436-26.984 0c-1.854 1.854-4.851 1.854-6.706 0-1.854-1.854-1.854-4.856 0-6.706 11.14-11.14 29.26-11.14 40.4 0 11.135 11.14 11.135 29.26 0 40.4-5.578 5.563-12.891 8.347-20.203 8.347z"/><path d="m45.405 243.869c-1.214 0-2.428-.465-3.353-1.389-1.854-1.854-1.854-4.851 0-6.706l25.267-25.267c1.854-1.854 4.851-1.854 6.706 0 1.854 1.854 1.854 4.851 0 6.706l-25.267 25.267c-.929.924-2.139 1.389-3.353 1.389z"/><path d="m28.561 284.53c-7.313 0-14.63-2.784-20.198-8.351-11.135-11.14-11.135-29.26 0-40.4 11.14-11.135 29.26-11.14 40.4 0 1.854 1.85 1.854 4.851 0 6.706s-4.851 1.854-6.706 0c-7.436-7.436-19.548-7.436-26.984 0-7.436 7.441-7.436 19.548 0 26.984s19.543 7.436 26.984 0c1.854-1.854 4.851-1.854 6.706 0s1.854 4.856 0 6.706c-5.572 5.571-12.885 8.355-20.202 8.355z"/><path d="m233.429 265.119c-1.261 0-2.466-.498-3.358-1.389l-14.801-14.82c-1.85-1.849-1.85-4.851 0-6.701l22.204-22.232c.892-.892 2.096-1.389 3.358-1.389 1.261 0 2.466.498 3.358 1.389l14.801 14.82c1.849 1.85 1.849 4.851 0 6.701l-22.204 22.232c-.892.891-2.102 1.389-3.358 1.389zm-8.1-19.562 8.1 8.109 15.503-15.517-8.1-8.109z"/><path d="m259.331 284.539c-5.463 0-10.599-2.129-14.459-5.994l-106.75-106.868c-1.85-1.854-1.85-4.851 0-6.706l22.218-22.218c.892-.892 2.096-1.389 3.353-1.389 1.257 0 2.466.498 3.353 1.389l106.74 106.859c7.972 7.977 7.972 20.952 0 28.928-3.856 3.875-8.992 5.999-14.455 5.999zm-111.145-116.21 103.401 103.515c4.14 4.145 11.358 4.14 15.498 0 4.278-4.282 4.278-11.244 0-15.522l-103.392-103.501z"/><path d="m119.931 144.081c-1.261 0-2.466-.498-3.358-1.389l-18.713-18.728-17.091-3.424c-.92-.185-1.764-.635-2.423-1.299l-62.912-62.983c-20.681-20.7-5.254-52.298-4.586-53.63.683-1.366 1.978-2.319 3.481-2.566 1.499-.247 3.04.251 4.116 1.333l119.658 119.781c1.85 1.85 1.85 4.851 0 6.706l-14.815 14.815c-.891.882-2.096 1.384-3.357 1.384zm-35.89-32.556 17.091 3.424c.92.185 1.764.635 2.423 1.295l16.375 16.389 8.105-8.105-111.155-111.282c-2.836 8.916-5.8 25.234 5.264 36.312z"/></svg>