<svg width="60" height="60" viewBox="0 0 60 60" fill="none" xmlns="http://www.w3.org/2000/svg">
<path d="M25.9135 32.001C25.7994 32.001 25.6845 31.9871 25.5704 31.959C25.0744 31.835 24.6803 31.4551 24.5413 30.965C23.5564 27.485 22.0014 24.7588 21.0002 24.7588C19.999 24.7588 18.4442 27.485 17.459 30.965C17.3201 31.4551 16.9259 31.835 16.43 31.959C15.934 32.0801 15.41 31.9291 15.0599 31.563C13.2739 29.6949 13.3749 26.1788 13.393 25.7849C13.392 24.8219 13.602 23.5769 14.018 22.1318C14.1741 21.5878 14.0701 21.0028 13.731 20.5269C13.657 20.4229 13.586 20.3189 13.5181 20.2148C12.5251 18.6988 12 16.8887 12 14.9797V14.1037C12 10.8576 15.3841 10.0006 17.1741 10.0006C18.9301 10.0006 20.2282 10.8415 21.0002 11.5347C21.7722 10.8418 23.0703 10.0006 24.8262 10.0006C26.6163 10.0006 30.0004 10.8576 30.0004 14.1046V14.9805C30.0004 16.8895 29.4753 18.6997 28.4823 20.2156C28.4153 20.3185 28.3444 20.4227 28.2704 20.5267C27.9313 21.0036 27.8273 21.5886 27.9834 22.1316C28.3984 23.5767 28.6084 24.8206 28.6084 25.8286C28.6244 26.1797 28.7265 29.6947 26.9404 31.5626C26.6703 31.846 26.2964 32.001 25.9135 32.001ZM17.1741 12.0007C17.0472 12.0018 14.0001 12.0427 14.0001 14.1048V14.9807C14.0001 16.4999 14.4121 17.9308 15.1911 19.1197C15.2461 19.2036 15.302 19.2867 15.3611 19.3698C16.0531 20.3438 16.264 21.5528 15.9391 22.6839C15.581 23.9329 15.391 25.0199 15.391 25.829C15.364 26.4949 15.433 28.033 15.9081 29.204C16.764 26.628 18.4702 22.76 21.0002 22.76C23.5283 22.76 25.2343 26.6251 26.0902 29.2C26.5672 28.017 26.6353 26.462 26.6091 25.872C26.6081 25.0191 26.4191 23.932 26.06 22.683C25.7351 21.5511 25.946 20.343 26.6391 19.3679C26.6971 19.2859 26.7532 19.2039 26.8072 19.121C27.5882 17.93 28.0003 16.499 28.0003 14.9799V14.1039C28.0003 12.0509 24.9772 12.0009 24.8252 11.9999C22.9661 12.0009 21.8321 13.5548 21.8211 13.5709C21.447 14.1079 20.5531 14.1079 20.1791 13.5709C20.1373 13.5127 19.0353 12.0007 17.1741 12.0007Z" fill="#009546"/>
<path d="M18.0004 16.0007C17.4484 16.0007 17.0005 15.5526 17.0005 15.0008C17.0005 14.4489 17.4486 14.0008 18.0004 14.0008C18.5963 14.0008 19.6735 13.0567 20.2205 12.3748C20.5665 11.9448 21.1955 11.8759 21.6266 12.2217C22.0565 12.5677 22.1255 13.1968 21.7796 13.6278C21.4614 14.0238 19.7823 16.0007 18.0004 16.0007Z" fill="#009546"/>
<path d="M21.0004 42.0011C9.42109 42.0011 0 32.5809 0 21.0007C0 9.42049 9.42109 0.000244141 21.0004 0.000244141C32.5798 0.000244141 42.0009 9.42049 42.0009 21.0007C42.0009 32.5809 32.5796 42.0011 21.0004 42.0011ZM21.0004 2.00036C10.5233 2.00036 2.00011 10.5236 2.00011 21.0007C2.00011 31.4778 10.5233 40.001 21.0004 40.001C31.4776 40.001 40.0008 31.4778 40.0008 21.0007C40.0008 10.5236 31.4776 2.00036 21.0004 2.00036Z" fill="#009546"/>
<path d="M40.3688 48.1134C39.5947 48.1134 38.8368 47.8104 38.2628 47.2364C37.5608 46.5344 37.2548 45.5345 37.4427 44.5605C37.6308 43.5865 38.2868 42.7725 39.1978 42.3824L45.8499 39.5314C46.9789 39.0483 48.268 39.2954 49.137 40.1644C49.8379 40.8654 50.145 41.8655 49.9571 42.8396C49.769 43.8136 49.113 44.6275 48.202 45.0187L41.5499 47.8697C41.1678 48.0333 40.7656 48.1134 40.3688 48.1134ZM47.0279 41.2892C46.8969 41.2892 46.7649 41.3152 46.6378 41.3702L39.9856 44.2212C39.6807 44.3521 39.4696 44.6142 39.4066 44.9403C39.3435 45.2663 39.4426 45.5883 39.6775 45.8232C39.9635 46.1102 40.3896 46.1901 40.7616 46.0321L47.4138 43.1812C47.7187 43.0502 47.9308 42.7881 47.9928 42.4621C48.0548 42.1361 47.9567 41.8141 47.7218 41.5792C47.5329 41.3892 47.2828 41.2892 47.0279 41.2892Z" fill="#009546"/>
<path d="M43.3926 51.1373C42.6185 51.1373 41.8606 50.8343 41.2867 50.2603C40.5857 49.5594 40.2787 48.5584 40.4666 47.5852C40.6547 46.6112 41.3107 45.7972 42.2217 45.4063L48.8738 42.5553C50.0018 42.0714 51.2919 42.3193 52.1609 43.1883C52.8618 43.8893 53.1688 44.8903 52.9809 45.8634C52.7929 46.8375 52.1368 47.6514 51.2259 48.0424L44.5737 50.8933C44.1908 51.0574 43.7897 51.1373 43.3926 51.1373ZM50.0509 44.3133C49.9199 44.3133 49.7879 44.3393 49.6618 44.3933L43.0097 47.2442C42.7048 47.3752 42.4926 47.6373 42.4306 47.9633C42.3676 48.2893 42.4667 48.6113 42.7016 48.8462C42.9875 49.1332 43.4137 49.2131 43.7857 49.0552L50.4378 46.2042C50.7428 46.0733 50.9549 45.8111 51.0169 45.4851C51.0799 45.1591 50.9808 44.8371 50.7459 44.6022C50.5568 44.4122 50.3069 44.3133 50.0509 44.3133Z" fill="#009546"/>
<path d="M46.4158 54.1604C45.6417 54.1604 44.8838 53.8574 44.3098 53.2834C43.6089 52.5824 43.3019 51.5814 43.4898 50.6083C43.6779 49.6342 44.3339 48.8203 45.2448 48.4291L51.897 45.5781C53.0249 45.0942 54.315 45.3422 55.184 46.2112C55.885 46.9121 56.192 47.9131 56.0041 48.8863C55.816 49.8603 55.16 50.6743 54.249 51.0654L47.5969 53.9164C47.214 54.0805 46.8129 54.1604 46.4158 54.1604ZM53.0751 47.3364C52.9442 47.3364 52.8122 47.3623 52.6861 47.4163L46.0339 50.2673C45.729 50.3982 45.5169 50.6603 45.4549 50.9864C45.3918 51.3124 45.4909 51.6344 45.7258 51.8693C46.0118 52.1563 46.4379 52.2383 46.8099 52.0782L53.4621 49.2273C53.767 49.0963 53.9791 48.8342 54.0411 48.5082C54.1042 48.1822 54.0051 47.8602 53.7702 47.6253C53.58 47.4363 53.3301 47.3364 53.0751 47.3364Z" fill="#009546"/>
<path d="M49.4387 57.1845C48.6646 57.1845 47.9067 56.8815 47.3336 56.3075C46.6326 55.6065 46.3256 54.6064 46.5135 53.6324C46.7016 52.6583 47.3576 51.8444 48.2686 51.4532L54.9207 48.6022C56.0487 48.1183 57.3388 48.3673 58.2078 49.2353C58.9098 49.9373 59.2157 50.9372 59.0278 51.9112C58.84 52.8852 58.1837 53.6992 57.2728 54.0893L50.6206 56.9403C50.2379 57.1046 49.8358 57.1845 49.4387 57.1845ZM56.098 50.3594C55.967 50.3594 55.835 50.3854 55.7089 50.4394L49.0568 53.2903C48.7519 53.4213 48.5397 53.6834 48.4777 54.0094C48.4158 54.3354 48.5138 54.6574 48.7487 54.8923C49.0357 55.1793 49.4608 55.2624 49.8328 55.1013L56.486 52.2493C56.7909 52.1191 57.002 51.8573 57.0651 51.5312C57.1281 51.2052 57.029 50.8832 56.7941 50.6483C56.6039 50.4594 56.354 50.3594 56.098 50.3594Z" fill="#009546"/>
<path d="M39.0337 44.9843L37.7006 43.6512C36.9056 42.8573 36.4685 41.8002 36.4685 40.6762C36.4685 39.5523 36.9065 38.4962 37.7006 37.7013C39.3406 36.0592 42.0106 36.0603 43.6497 37.7013L47.1129 41.1644L39.9837 44.2195C39.9067 44.2526 39.8277 44.3045 39.7347 44.3844L39.0337 44.9843ZM40.6766 38.4711C40.1117 38.4711 39.5466 38.6862 39.1156 39.1173C38.6985 39.5344 38.4694 40.0883 38.4694 40.6783C38.4694 41.2673 38.6985 41.8223 39.1156 42.2394L39.2406 42.3644L43.6107 40.4915L42.2367 39.1175C41.8067 38.6862 41.2418 38.4711 40.6766 38.4711Z" fill="#009546"/>
<path d="M55.7939 59.9996C54.717 59.9996 53.6388 59.5897 52.8189 58.7696L49.3558 55.3065L56.4849 52.2514C56.5619 52.2185 56.641 52.1664 56.734 52.0865L57.437 51.4865L58.7701 52.8197C60.4101 54.4596 60.4101 57.1288 58.7701 58.7688C57.949 59.5895 56.8708 59.9996 55.7939 59.9996ZM52.8588 55.9804L54.2328 57.3545C55.0938 58.2144 56.4929 58.2144 57.3539 57.3545C58.2139 56.4945 58.2139 55.0935 57.3539 54.2334L57.2289 54.1083L52.8588 55.9804Z" fill="#009546"/>
<path d="M34.6074 36.0301L36.0214 34.616L39.1075 37.7021L37.6934 39.1161L34.6074 36.0301Z" fill="#009546"/>
<path d="M21.0005 38.0011C11.6264 38.0011 4.00023 30.375 4.00023 21.0009C4.00023 11.6268 11.6264 4.00068 21.0005 4.00068C30.3745 4.00068 38.0007 11.6268 38.0007 21.0009C38.0007 30.375 30.3745 38.0011 21.0005 38.0011ZM21.0005 6.00058C12.7292 6.00058 6.00013 12.7297 6.00013 21.0009C6.00013 29.2721 12.7292 36.0012 21.0005 36.0012C29.2717 36.0012 36.0008 29.2721 36.0008 21.0009C36.0008 12.7297 29.2714 6.00058 21.0005 6.00058Z" fill="#009546"/>
</svg>
