<svg width="40" height="40" viewBox="0 0 40 40" fill="none" xmlns="http://www.w3.org/2000/svg">
<path d="M11.9112 35.8341C11.501 35.8341 11.1104 35.6642 10.8193 35.3483C8.07795 32.3699 8.30005 26.3816 8.31063 26.1282C8.30976 24.1248 8.85088 21.7382 9.30462 20.095C9.63353 18.9032 9.41645 17.6275 8.70854 16.5925C8.59341 16.4241 8.48401 16.2558 8.37807 16.0883C6.83723 13.6415 6.02233 10.7173 6.02233 7.63165V6.13502C6.02233 1.2826 11.0495 0 13.7085 0C16.824 0 18.9781 1.78833 20.0002 2.87658C21.023 1.78833 23.1766 0 26.2919 0C28.951 0 33.9781 1.28243 33.9781 6.13502V7.63165C33.9781 10.7175 33.1632 13.6417 31.6216 16.0874C31.5164 16.2549 31.4054 16.4232 31.2912 16.5907C30.5824 17.6266 30.3653 18.9023 30.6942 20.0941C31.1481 21.7375 31.6891 24.1241 31.6891 26.1632C31.699 26.3808 31.9209 32.369 29.1804 35.3474C28.803 35.7565 28.2563 35.9208 27.7209 35.7874C27.1848 35.654 26.7597 35.2349 26.6125 34.694C25.0725 29.0398 22.4298 23.3332 20 23.3332C17.5703 23.3332 14.9277 29.0398 13.3869 34.6949C13.2397 35.2358 12.8146 35.6549 12.2785 35.7883C12.1562 35.819 12.0328 35.8341 11.9112 35.8341ZM20.0002 21.6666C24.2224 21.6666 27.0574 30.1349 28.137 34.0291C30.2445 31.4799 30.0487 26.2532 30.0463 26.1991C30.0454 24.3132 29.5374 22.0857 29.1114 20.5432C28.6494 18.8725 28.9519 17.0857 29.9395 15.6416C30.0423 15.4916 30.141 15.3408 30.2355 15.19C31.6086 13.0133 32.3337 10.3991 32.3337 7.63165V6.13502C32.3337 1.71752 26.5386 1.66673 26.2919 1.66673C22.7587 1.66673 20.6949 4.61255 20.6745 4.6426C20.3669 5.09017 19.6319 5.09017 19.3244 4.6426C19.3063 4.61519 17.2153 1.66673 13.7085 1.66673C13.4627 1.66761 7.66669 1.73597 7.66669 6.13502V7.63165C7.66669 10.3991 8.39194 13.0133 9.76426 15.19C9.85962 15.3408 9.95827 15.4917 10.062 15.6434C11.0487 17.0868 11.3504 18.8733 10.8892 20.5443C10.4632 22.0868 9.95515 24.3143 9.95515 26.1643C9.95273 26.2527 9.762 31.4859 11.8636 34.0293C12.943 30.1349 15.7782 21.6666 20.0002 21.6666Z" fill="white"/>
<path d="M15.067 8.33332C14.613 8.33332 14.2448 7.95991 14.2448 7.50004C14.2448 7.04 14.6132 6.66676 15.067 6.66676C16.9631 6.66676 18.7761 4.53014 19.3155 3.706C19.5662 3.32275 20.0768 3.21679 20.4552 3.47176C20.8333 3.72586 20.937 4.24336 20.6863 4.62679C20.5866 4.77826 18.2242 8.33332 15.067 8.33332Z" fill="white"/>
<path d="M33.445 35.8461C32.9911 35.8461 32.6228 35.4727 32.6228 35.0129V34.1796C32.6228 33.7196 32.9912 33.3463 33.445 33.3463C33.8989 33.3463 34.2672 33.7197 34.2672 34.1796V35.0129C34.2672 35.4727 33.8987 35.8461 33.445 35.8461Z" fill="white"/>
<path d="M35.9117 33.3462C35.4578 33.3462 35.0895 32.9727 35.0895 32.5129V31.6796C35.0895 31.2196 35.458 30.8463 35.9117 30.8463C36.3654 30.8463 36.7339 31.2197 36.7339 31.6796V32.5129C36.7339 32.9727 36.3654 33.3462 35.9117 33.3462Z" fill="white"/>
<path d="M18.3172 30.8071C17.8633 30.8071 17.495 30.4337 17.495 29.9738V29.1405C17.495 28.6805 17.8635 28.3072 18.3172 28.3072C18.7709 28.3072 19.1394 28.6807 19.1394 29.1405V29.9738C19.1394 30.4337 18.7709 30.8071 18.3172 30.8071Z" fill="white"/>
<path d="M20.8225 32.7602C20.3685 32.7602 20.0003 32.3868 20.0003 31.9269V31.0937C20.0003 30.6336 20.3687 30.2604 20.8225 30.2604C21.2762 30.2604 21.6446 30.6338 21.6446 31.0937V31.9269C21.6446 32.3868 21.2762 32.7602 20.8225 32.7602Z" fill="white"/>
<path d="M7.1593 33.9907C6.70538 33.9907 6.33712 33.6173 6.33712 33.1574V32.3241C6.33712 31.8641 6.70556 31.4909 7.1593 31.4909C7.61321 31.4909 7.98147 31.8643 7.98147 32.3241V33.1574C7.98147 33.6175 7.61321 33.9907 7.1593 33.9907Z" fill="white"/>
<path d="M4.6926 36.4907C4.23869 36.4907 3.87042 36.1173 3.87042 35.6574V34.8241C3.87042 34.3641 4.23886 33.9909 4.6926 33.9909C5.14634 33.9909 5.51478 34.3643 5.51478 34.8241V35.6574C5.51478 36.1175 5.14651 36.4907 4.6926 36.4907Z" fill="white"/>
<path d="M39.2749 40H1.17764C0.723731 40 0.355469 39.6266 0.355469 39.1667V29.1667C0.355469 28.7066 0.723905 28.3334 1.17764 28.3334H1.61097C3.11818 28.3334 4.52326 27.6493 5.46473 26.4567L8.9041 22.0991C9.14094 21.7983 9.55116 21.7007 9.8948 21.8649C10.2384 22.0281 10.4276 22.4091 10.3511 22.7865C10.0879 24.0883 9.95515 25.225 9.95515 26.1643C9.95273 26.2527 9.762 31.4859 11.8636 34.0293C12.943 30.1349 15.7782 21.6666 20.0002 21.6666C24.2207 21.6666 27.0574 30.1349 28.137 34.0291C30.2445 31.4799 30.0487 26.2532 30.0463 26.1991C30.0454 25.1424 29.8899 23.8974 29.5823 22.4616C29.501 22.0808 29.69 21.6941 30.0386 21.5291C30.388 21.3649 30.8017 21.4674 31.0368 21.7758L34.5452 26.3857C35.4726 27.6048 36.9337 28.3332 38.4523 28.3332H39.2745C39.7284 28.3332 40.0967 28.7066 40.0967 29.1665V39.1665C40.0972 39.6266 39.7288 40 39.2749 40ZM1.99999 38.3333H38.4529V30C36.4278 30 34.4798 29.0291 33.2433 27.4042L31.6629 25.3266C31.6809 25.6174 31.6908 25.8966 31.6908 26.1632C31.7007 26.3808 31.9226 32.369 29.1821 35.3474C28.8097 35.7515 28.2506 35.9208 27.7219 35.7874C27.1858 35.654 26.7616 35.2349 26.6144 34.694C25.0718 29.0398 22.4289 23.3332 20 23.3332C17.5703 23.3332 14.9277 29.0398 13.3869 34.6949C13.2397 35.2358 12.8146 35.6549 12.2785 35.7883C11.7415 35.9208 11.1967 35.7575 10.8193 35.3483C8.07881 32.3699 8.30073 26.3816 8.31148 26.1282C8.31148 25.9265 8.31633 25.7158 8.32795 25.4965L6.74844 27.4973C5.49281 29.0872 3.62064 29.9998 1.61115 29.9998H1.99999V38.3333Z" fill="white"/>
</svg>
