<svg id="Capa_1" enable-background="new 0 0 284.539 284.539" height="512" viewBox="0 0 284.539 284.539" width="512" xmlns="http://www.w3.org/2000/svg"><path d="m187.324 199.177h-37.939c-2.618 0-4.742-2.12-4.742-4.742 0-2.623 2.125-4.742 4.742-4.742h37.939c5.231 0 9.485-4.254 9.485-9.485s-4.254-9.485-9.485-9.485h-33.196c-2.618 0-4.742-2.12-4.742-4.742s2.125-4.742 4.742-4.742h33.196c10.462 0 18.969 8.508 18.969 18.969s-8.508 18.969-18.969 18.969z"/><path d="m85.63 284.539c-1.257 0-2.466-.498-3.353-1.389l-78.514-78.519c-.892-.887-1.389-2.091-1.389-3.353 0-1.261.498-2.466 1.389-3.353l26.827-26.823c1.854-1.854 4.851-1.854 6.706 0l78.514 78.514c1.854 1.854 1.854 4.851 0 6.706l-26.827 26.827c-.887.892-2.092 1.39-3.353 1.39zm-71.809-83.261 71.808 71.813 20.117-20.122-71.803-71.808z"/><path d="m96.499 241.754c-1.224 0-2.438-.474-3.353-1.389l-46.906-46.907c-1.442-1.446-1.802-3.652-.892-5.473.128-.256.484-.911.654-1.138 3.059-4.078 30.474-39.835 51.217-39.835h26.633c5.15 0 10.215 1.399 14.63 4.05l18.082 10.85c2.243 1.347 2.973 4.259 1.627 6.506-1.347 2.248-4.259 2.978-6.506 1.627l-18.082-10.85c-2.945-1.764-6.317-2.698-9.75-2.698h-26.633c-11.263 0-30.384 19.244-41.391 33.139l41.429 41.424c4.339-2.272 8.081-3.239 8.28-3.286.379-.09.773-.142 1.167-.142h66.274c14.184 0 27.776-5.254 38.27-14.796l34.534-31.394c8.693-8.697 20.681-32.234 25.362-41.799-13.411-5.985-24.579-2.025-33.244 11.832-3.803 6.08-9.11 10.703-15.351 13.373l-23.105 9.902c-2.409 1.034-5.198-.085-6.227-2.49-1.034-2.404.085-5.193 2.49-6.222l23.105-9.902c4.453-1.906 8.271-5.254 11.045-9.689 12.169-19.462 30.36-24.205 49.918-13.032 2.144 1.224 2.988 3.884 1.944 6.122-.692 1.48-17.091 36.464-29.398 48.77l-34.695 31.551c-12.24 11.125-28.098 17.257-44.649 17.257h-65.61c-1.295.394-4.88 1.603-8.242 3.846-.801.532-1.717.793-2.627.793z"/><path d="m202.224 132.785c-.56 0-1.129-.071-1.688-.204-2.575-.626-4.614-2.613-5.316-5.188-6.089-22.384-15.597-39.252-22.123-39.252s-16.029 16.873-22.118 39.247c-.702 2.58-2.741 4.567-5.321 5.193-2.542.602-5.217-.199-6.985-2.129-10.352-11.258-9.532-33.557-9.489-34.496-.005-7.351 1.978-16.119 3.647-22.156 1.053-3.813.356-7.901-1.911-11.22-.427-.626-.835-1.252-1.228-1.878-5.729-9.1-8.759-19.965-8.759-31.423v-5.406c-.002-18.884 19.285-23.873 29.481-23.873 10.689 0 18.419 5.198 22.682 9.058 4.264-3.86 11.994-9.058 22.683-9.058 10.196 0 29.483 4.989 29.483 23.873v5.406c0 11.457-3.03 22.322-8.759 31.423-.394.621-.801 1.252-1.228 1.878-2.267 3.32-2.964 7.407-1.911 11.22 1.665 6.032 3.652 14.806 3.652 22.355.038.74.858 23.038-9.499 34.301-1.376 1.499-3.306 2.329-5.293 2.329zm-29.127-54.129c15.228 0 25.362 26.353 29.976 41.709 4.097-7.72 4.657-19.481 4.463-24.01-.005-6.687-1.802-14.559-3.31-20.027-1.797-6.511-.621-13.473 3.22-19.102.36-.522.702-1.053 1.034-1.574 4.775-7.588 7.298-16.707 7.298-26.372v-5.406c0-14.227-19.183-14.388-19.998-14.388-11.898 0-18.794 9.186-18.86 9.276-1.788 2.428-5.852 2.428-7.64 0-.275-.36-7.118-9.276-18.865-9.276-.806.005-19.998.266-19.998 14.388v5.406c0 9.665 2.523 18.784 7.298 26.367.332.522.673 1.058 1.034 1.579 3.846 5.634 5.022 12.591 3.22 19.102-1.508 5.463-3.31 13.335-3.31 19.828-.19 4.704.389 16.499 4.463 24.205 4.613-15.352 14.747-41.705 29.975-41.705z"/><path d="m154.128 33.196c-2.618 0-4.742-2.12-4.742-4.742s2.125-4.742 4.742-4.742c4.036 0 11.571-6.492 15.394-10.879 1.721-1.973 4.714-2.177 6.691-.46 1.973 1.721 2.181 4.714.46 6.691-2.059 2.362-12.81 14.132-22.545 14.132z"/></svg>