<svg id="Capa_1" enable-background="new 0 0 284.541 284.541" height="512" viewBox="0 0 284.541 284.541" width="512" xmlns="http://www.w3.org/2000/svg"><path d="m85.455 163.646c-.986 0-1.982-.308-2.841-.944-2.096-1.57-2.523-4.543-.953-6.639 1.522-2.034 15.166-20.013 25.343-25.111 2.338-1.171 5.193-.223 6.364 2.115 1.176 2.343.223 5.193-2.115 6.369-6.933 3.467-18.229 17.286-22 22.313-.929 1.238-2.356 1.897-3.798 1.897z"/><path d="m113.866 163.646c-.024 0-.043 0-.066 0-2.618-.033-4.714-2.186-4.681-4.804.009-.702.422-17.305 17.48-23.228 2.48-.873 5.174.451 6.037 2.921.858 2.471-.451 5.179-2.926 6.032-10.846 3.765-11.106 14.289-11.106 14.393-.033 2.6-2.153 4.686-4.738 4.686z"/><path d="m142.377 145.844c-.128 0-.142 0-.27 0-1.921 0-21.118-.161-35.131-6.307-13.35-5.857-31.408-5.79-53.664.237-24.679 6.658-49.51-4.529-50.558-5.013-1.859-.858-2.959-2.822-2.722-4.856s1.759-3.699 3.77-4.107c.228-.047 22.953-4.804 49.956-22.725.716-.697 1.603-1.361 2.566-2.077 6.549-4.894 40.656-28.501 69.077-12.624.199.109 8.982 5.212 16.565 4.742.199-.009.408-.009.607 0 6.412.446 14.033-3.234 16.451-4.676 28.539-15.92 62.646 7.668 69.195 12.558.963.716 1.85 1.38 2.566 2.077 27.117 18.007 49.723 22.678 49.946 22.725 2.015.403 3.543 2.058 3.78 4.097s-.863 4.003-2.732 4.861c-1.043.474-25.879 11.666-50.558 5.013-22.256-6.013-40.31-6.099-53.664-.237-14.015 6.15-33.212 6.312-35.18 6.312zm-.137-9.485c.19-.199 18.912.019 31.498-5.511 15.379-6.748 35.553-6.824 59.948-.237 10.746 2.907 21.772 1.788 30.118-.052-9.826-3.614-23.598-9.779-38.721-19.875-.36-.242-.678-.522-.948-.839-4.719-4.244-37.009-26.249-60.379-13.193-.341.209-11.064 6.412-21.492 5.947-10.528.436-21.151-5.743-21.606-6.013-23.252-12.97-55.547 9.02-60.265 13.26-.275.313-.593.598-.948.839-15.109 10.092-28.866 16.257-38.688 19.861 8.356 1.845 19.382 2.954 30.085.066 24.394-6.592 44.568-6.511 59.948.237 12.594 5.524 31.26 5.6 31.45 5.51z"/><path d="m142.263 201.585c-82.72 0-120.033-49.429-129.494-64.576-1.024-1.646-.948-3.751.194-5.311 1.143-1.57 3.139-2.286 5.003-1.797 8.328 2.12 20.79 3.974 32.874.711 24.394-6.592 44.568-6.511 59.948.237 12.596 5.525 31.261 5.601 31.451 5.511.19-.199 18.912.019 31.498-5.511 15.389-6.748 35.553-6.829 59.948-.237 12.083 3.263 24.541 1.423 32.874-.711 1.878-.498 3.86.228 5.003 1.797 1.143 1.56 1.219 3.666.194 5.311-9.46 15.147-46.768 64.576-129.493 64.576zm-114.82-60.28c14.943 18.808 49.922 50.795 114.82 50.795s99.878-31.987 114.826-50.795c-7.82.92-16.873.892-25.874-1.532-22.246-6.013-40.305-6.089-53.664-.237-14.483 6.355-34.439 6.326-35.311 6.307-.773.043-20.781.047-35.264-6.307-13.35-5.857-31.408-5.79-53.664.237-8.996 2.424-18.045 2.452-25.869 1.532z"/><path d="m199.076 163.646c-1.446 0-2.869-.659-3.799-1.897-3.765-5.032-15.066-18.846-22-22.313-2.343-1.176-3.291-4.026-2.115-6.369 1.171-2.338 4.026-3.282 6.364-2.115 10.177 5.098 23.821 23.076 25.343 25.111 1.57 2.096 1.143 5.07-.953 6.639-.857.631-1.853.944-2.84.944z"/><path d="m170.665 163.646c-2.58 0-4.69-2.068-4.742-4.647-.014-.498-.469-10.732-11.106-14.426-2.471-.858-3.784-3.561-2.926-6.032.863-2.471 3.557-3.794 6.037-2.921 17.058 5.923 17.471 22.526 17.48 23.228.033 2.618-2.063 4.771-4.681 4.804-.019-.006-.038-.006-.062-.006z"/><path d="m95.02 136.003c-1.152 0-2.305-.417-3.22-1.261-10.737-9.94-11.073-22.645-11.083-23.18-.043-2.622 2.044-4.78 4.662-4.828 2.675.009 4.761 2.03 4.823 4.638.014.441.398 9.333 8.043 16.404 1.921 1.783 2.039 4.78.261 6.701-.934 1.014-2.21 1.526-3.486 1.526z"/><path d="m68.103 136.482c-1.318 0-2.632-.545-3.566-1.617-3.723-4.249-6.729-11.277-7.061-12.069-1.015-2.414.119-5.193 2.532-6.208 2.404-1.01 5.193.119 6.212 2.532.74 1.75 3.158 6.872 5.449 9.489 1.726 1.968 1.532 4.965-.441 6.691-.901.794-2.015 1.182-3.125 1.182z"/><path d="m189.511 136.003c-1.276 0-2.551-.507-3.481-1.522-1.778-1.921-1.665-4.918.261-6.701 7.673-7.099 8.043-16.29 8.043-16.38.043-2.618 2.144-4.785 4.823-4.657 2.618.047 4.704 2.205 4.662 4.828-.009.531-.351 13.241-11.083 23.18-.92.835-2.077 1.252-3.225 1.252z"/><path d="m216.428 136.482c-1.11 0-2.224-.389-3.125-1.176-1.973-1.726-2.167-4.723-.441-6.691 2.295-2.618 4.714-7.739 5.449-9.489 1.02-2.414 3.794-3.543 6.212-2.532 2.414 1.015 3.547 3.794 2.532 6.208-.332.792-3.339 7.82-7.061 12.069-.938 1.066-2.252 1.611-3.566 1.611z"/></svg>