<svg width="27" height="27" viewBox="0 0 27 27" fill="none" xmlns="http://www.w3.org/2000/svg">
<path d="M16.485 5.77826C17.654 6.0059 18.7284 6.57654 19.5706 7.41713C20.4128 8.25772 20.9845 9.33002 21.2126 10.4968M16.485 1C16.485 1 19.537 1.56736 22.4094 4.43432C25.2819 7.30127 26 10.4848 26 10.4848M24.8031 20.0175V23.6012C24.8045 23.9339 24.7362 24.2632 24.6027 24.568C24.4692 24.8728 24.2733 25.1464 24.0277 25.3714C23.7821 25.5963 23.4921 25.7675 23.1763 25.8741C22.8606 25.9807 22.526 26.0202 22.194 25.9903C18.5111 25.5909 14.9734 24.3348 11.8652 22.323C8.97337 20.4889 6.52162 18.0419 4.68405 15.1556C2.66135 12.0392 1.40257 8.49111 1.00971 4.79872C0.979806 4.46838 1.01914 4.13545 1.12521 3.82111C1.23128 3.50678 1.40177 3.21794 1.62581 2.97297C1.84986 2.728 2.12255 2.53228 2.42654 2.39826C2.73052 2.26425 3.05913 2.19488 3.39145 2.19457H6.98201C7.56285 2.18886 8.12595 2.39415 8.56636 2.77218C9.00676 3.1502 9.29442 3.67516 9.37571 4.24922C9.52726 5.39608 9.80832 6.52215 10.2135 7.60595C10.3745 8.03351 10.4094 8.49818 10.3139 8.94491C10.2185 9.39164 9.99672 9.80169 9.67493 10.1265L8.15493 11.6436C9.85871 14.6342 12.3397 17.1104 15.336 18.811L16.856 17.2939C17.1815 16.9727 17.5923 16.7514 18.0399 16.6561C18.4875 16.5608 18.953 16.5956 19.3814 16.7563C20.4673 17.1607 21.5955 17.4413 22.7446 17.5925C23.326 17.6744 23.8569 17.9667 24.2365 18.4138C24.616 18.8609 24.8177 19.4316 24.8031 20.0175Z" stroke="#009546" stroke-width="2" stroke-linecap="round" stroke-linejoin="round"/>
</svg>
